<svg version="1.1" xmlns="http://www.w3.org/2000/svg" xmlns:xlink="http://www.w3.org/1999/xlink" width="796" height="420"><defs/><g><g transform="translate(-190,-94) scale(1,1)"><path fill="none" stroke="#000000" d="M 632 286 L 632 395 L 736 395" stroke-miterlimit="10"/></g><g transform="translate(-190,-94) scale(1,1)"><path fill="none" stroke="#000000" d="M 725.8373251423759 399.209517756016 L 736 395 L 725.8373251423758 390.790482243984" stroke-miterlimit="10"/></g><g transform="translate(-190,-94) scale(1,1)"><g><path fill="none" stroke="none"/><text fill="#000000" stroke="none" font-family="Arial" font-size="13px" font-style="normal" font-weight="normal" text-decoration="none" x="535.551025390625" y="306.5"> [canAdd == false &amp;&amp; trying &gt; 9]</text></g></g><g transform="translate(-190,-94) scale(1,1)"><path fill="none" stroke="#000000" d="M 672 224 L 672 192 L 800 192 L 800 224" stroke-miterlimit="10"/></g><g transform="translate(-190,-94) scale(1,1)"><path fill="none" stroke="#000000" d="M 795.790482243984 213.83732514237585 L 800 224 L 804.209517756016 213.83732514237585" stroke-miterlimit="10"/></g><g transform="translate(-190,-94) scale(1,1)"><g><path fill="none" stroke="none"/><text fill="#000000" stroke="none" font-family="Arial" font-size="13px" font-style="normal" font-weight="normal" text-decoration="none" x="622.15283203125" y="215.5"> [canAdd == false &amp;&amp; trying &lt;= 10]</text></g></g><g transform="translate(-190,-94) scale(1,1)"><path fill="none" stroke="#000000" d="M 583 286 L 583 368" stroke-miterlimit="10"/></g><g transform="translate(-190,-94) scale(1,1)"><path fill="none" stroke="#000000" d="M 578.790482243984 357.83732514237585 L 583 368 L 587.209517756016 357.83732514237585" stroke-miterlimit="10"/></g><g transform="translate(-190,-94) scale(1,1)"><g><path fill="none" stroke="none"/><text fill="#000000" stroke="none" font-family="Arial" font-size="13px" font-style="normal" font-weight="normal" text-decoration="none" x="396.5478515625" y="333.5"> [canAdd == true &amp;&amp; trying &lt; 9]</text></g></g><g transform="translate(-190,-94) scale(1,1)"><path fill="none" stroke="#000000" d="M 583 415 L 583 476 L 680 476" stroke-miterlimit="10"/></g><g transform="translate(-190,-94) scale(1,1)"><path fill="none" stroke="#000000" d="M 669.8373251423759 480.209517756016 L 680 476 L 669.8373251423758 471.790482243984" stroke-miterlimit="10"/></g><g transform="translate(-190,-94) scale(1,1)"><path fill="none" stroke="#000000" d="M 774 415 L 774 476 L 705 476" stroke-miterlimit="10"/></g><g transform="translate(-190,-94) scale(1,1)"><path fill="none" stroke="#000000" d="M 715.1626748576241 471.790482243984 L 705 476 L 715.1626748576241 480.209517756016" stroke-miterlimit="10"/></g><g transform="translate(-190,-94) scale(1,1)"><path fill="#C0C0C0" stroke="none" d="M 377 111 L 973 111 Q 983 111 983 121 L 983 501 Q 983 511 973 511 L 377 511 Q 367 511 367 501 L 367 121 Q 367 111 377 111 Z" opacity="0.2"/></g><g transform="translate(-190,-94) scale(1,1)"><path fill="#ffffff" stroke="none" d="M 370 104 L 966 104 Q 976 104 976 114 L 976 494 Q 976 504 966 504 L 370 504 Q 360 504 360 494 L 360 114 Q 360 104 370 104 Z"/></g><g transform="translate(-190,-94) scale(1,1)"><path fill="none" stroke="#000000" d="M 370 104 L 966 104 Q 976 104 976 114 L 976 494 Q 976 504 966 504 L 370 504 Q 360 504 360 494 L 360 114 Q 360 104 370 104 Z" stroke-miterlimit="10"/></g><g transform="translate(-190,-94) scale(1,1)"><path fill="none" stroke="#000000" d="M 360 129 L 976 129" stroke-miterlimit="10"/></g><g transform="translate(-190,-94) scale(1,1)"><g><path fill="none" stroke="none"/><text fill="#000000" stroke="none" font-family="Arial" font-size="13px" font-style="normal" font-weight="bold" text-decoration="none" x="616.330078125" y="123.5">addEquipmentFor</text></g></g><g transform="translate(-190,-94) scale(1,1)"><path fill="#C0C0C0" stroke="none" d="M 399 264.5 C 399 259.2532944 403.2532944 255 408.5 255 C 413.7467056 255 418 259.2532944 418 264.5 C 418 269.7467056 413.7467056 274 408.5 274 C 403.2532944 274 399 269.7467056 399 264.5 Z" opacity="0.2"/></g><g transform="translate(-190,-94) scale(1,1)"><path fill="#000000" stroke="none" d="M 392 257.5 C 392 252.2532944 396.2532944 248 401.5 248 C 406.7467056 248 411 252.2532944 411 257.5 C 411 262.7467056 406.7467056 267 401.5 267 C 396.2532944 267 392 262.7467056 392 257.5 Z"/></g><g transform="translate(-190,-94) scale(1,1)"><path fill="#C0C0C0" stroke="none" d="M 577 231 L 801.97412109375 231 Q 811.97412109375 231 811.97412109375 241 L 811.97412109375 283 Q 811.97412109375 293 801.97412109375 293 L 577 293 Q 567 293 567 283 L 567 241 Q 567 231 577 231 Z" opacity="0.2"/></g><g transform="translate(-190,-94) scale(1,1)"><path fill="#ffffff" stroke="none" d="M 570 224 L 794.97412109375 224 Q 804.97412109375 224 804.97412109375 234 L 804.97412109375 276 Q 804.97412109375 286 794.97412109375 286 L 570 286 Q 560 286 560 276 L 560 234 Q 560 224 570 224 Z"/></g><g transform="translate(-190,-94) scale(1,1)"><path fill="none" stroke="#000000" d="M 570 224 L 794.97412109375 224 Q 804.97412109375 224 804.97412109375 234 L 804.97412109375 276 Q 804.97412109375 286 794.97412109375 286 L 570 286 Q 560 286 560 276 L 560 234 Q 560 224 570 224 Z" stroke-miterlimit="10"/></g><g transform="translate(-190,-94) scale(1,1)"><path fill="none" stroke="#000000" d="M 560 249 L 804.97412109375 249" stroke-miterlimit="10"/></g><g transform="translate(-190,-94) scale(1,1)"><g><path fill="none" stroke="none"/><text fill="#000000" stroke="none" font-family="Arial" font-size="13px" font-style="normal" font-weight="bold" text-decoration="none" x="646.71484375" y="243.5">trying to add</text></g></g><g transform="translate(-190,-94) scale(1,1)"><g><path fill="none" stroke="none"/><text fill="#000000" stroke="none" font-family="Arial" font-size="13px" font-style="normal" font-weight="normal" text-decoration="none" x="565" y="266.5">entry/canAdd=a.getKnapsack().isFull()</text></g></g><g transform="translate(-190,-94) scale(1,1)"><g><path fill="none" stroke="none"/><text fill="#000000" stroke="none" font-family="Arial" font-size="13px" font-style="normal" font-weight="normal" text-decoration="none" x="565" y="281.5">do/trying=trying+1</text></g></g><g transform="translate(-190,-94) scale(1,1)"><path fill="none" stroke="#000000" d="M 411 259 L 560 259" stroke-miterlimit="10"/></g><g transform="translate(-190,-94) scale(1,1)"><path fill="none" stroke="#000000" d="M 549.8373251423759 263.209517756016 L 560 259 L 549.8373251423758 254.790482243984" stroke-miterlimit="10"/></g><g transform="translate(-190,-94) scale(1,1)"><g><path fill="none" stroke="none"/><text fill="#000000" stroke="none" font-family="Arial" font-size="13px" font-style="normal" font-weight="normal" text-decoration="none" x="452.317626953125" y="254.5"> / trying=0</text></g></g><g transform="translate(-190,-94) scale(1,1)"><path fill="#C0C0C0" stroke="none" d="M 753 383 L 793.720703125 383 Q 803.720703125 383 803.720703125 393 L 803.720703125 412 Q 803.720703125 422 793.720703125 422 L 753 422 Q 743 422 743 412 L 743 393 Q 743 383 753 383 Z" opacity="0.2"/></g><g transform="translate(-190,-94) scale(1,1)"><path fill="#ffffff" stroke="none" d="M 746 376 L 786.720703125 376 Q 796.720703125 376 796.720703125 386 L 796.720703125 405 Q 796.720703125 415 786.720703125 415 L 746 415 Q 736 415 736 405 L 736 386 Q 736 376 746 376 Z"/></g><g transform="translate(-190,-94) scale(1,1)"><path fill="none" stroke="#000000" d="M 746 376 L 786.720703125 376 Q 796.720703125 376 796.720703125 386 L 796.720703125 405 Q 796.720703125 415 786.720703125 415 L 746 415 Q 736 415 736 405 L 736 386 Q 736 376 746 376 Z" stroke-miterlimit="10"/></g><g transform="translate(-190,-94) scale(1,1)"><g><path fill="none" stroke="none"/><text fill="#000000" stroke="none" font-family="Arial" font-size="13px" font-style="normal" font-weight="bold" text-decoration="none" x="750.8212890625" y="395.5">failed</text></g></g><g transform="translate(-190,-94) scale(1,1)"><path fill="#C0C0C0" stroke="none" d="M 465 375 L 710.68017578125 375 Q 720.68017578125 375 720.68017578125 385 L 720.68017578125 412 Q 720.68017578125 422 710.68017578125 422 L 465 422 Q 455 422 455 412 L 455 385 Q 455 375 465 375 Z" opacity="0.2"/></g><g transform="translate(-190,-94) scale(1,1)"><path fill="#ffffff" stroke="none" d="M 458 368 L 703.68017578125 368 Q 713.68017578125 368 713.68017578125 378 L 713.68017578125 405 Q 713.68017578125 415 703.68017578125 415 L 458 415 Q 448 415 448 405 L 448 378 Q 448 368 458 368 Z"/></g><g transform="translate(-190,-94) scale(1,1)"><path fill="none" stroke="#000000" d="M 458 368 L 703.68017578125 368 Q 713.68017578125 368 713.68017578125 378 L 713.68017578125 405 Q 713.68017578125 415 703.68017578125 415 L 458 415 Q 448 415 448 405 L 448 378 Q 448 368 458 368 Z" stroke-miterlimit="10"/></g><g transform="translate(-190,-94) scale(1,1)"><path fill="none" stroke="#000000" d="M 448 393 L 713.68017578125 393" stroke-miterlimit="10"/></g><g transform="translate(-190,-94) scale(1,1)"><g><path fill="none" stroke="none"/><text fill="#000000" stroke="none" font-family="Arial" font-size="13px" font-style="normal" font-weight="bold" text-decoration="none" x="549.400146484375" y="387.5">succeeded</text></g></g><g transform="translate(-190,-94) scale(1,1)"><g><path fill="none" stroke="none"/><text fill="#000000" stroke="none" font-family="Arial" font-size="13px" font-style="normal" font-weight="normal" text-decoration="none" x="453" y="410.5">entry/a.getKnapsack().addEquipment(a,e)</text></g></g><g transform="translate(-190,-94) scale(1,1)"><path fill="#C0C0C0" stroke="none" d="M 687 475.5 C 687 468.59644 692.59644 463 699.5 463 C 706.40356 463 712 468.59644 712 475.5 C 712 482.40356 706.40356 488 699.5 488 C 692.59644 488 687 482.40356 687 475.5 Z" opacity="0.2"/></g><g transform="translate(-190,-94) scale(1,1)"><path fill="none" stroke="#000000" d="M 680 468.5 C 680 461.59644 685.59644 456 692.5 456 C 699.40356 456 705 461.59644 705 468.5 C 705 475.40356 699.40356 481 692.5 481 C 685.59644 481 680 475.40356 680 468.5 Z" stroke-miterlimit="10"/></g><g transform="translate(-190,-94) scale(1,1)"><path fill="#000000" stroke="none" d="M 685 468.5 C 685 464.357864 688.357864 461 692.5 461 C 696.642136 461 700 464.357864 700 468.5 C 700 472.642136 696.642136 476 692.5 476 C 688.357864 476 685 472.642136 685 468.5 Z"/></g><g transform="translate(-190,-94) scale(1,1)"><path fill="none" stroke="#000000" d="M 670 224 L 670 176 L 824 176 L 824 255 L 805 255" stroke-miterlimit="10"/></g><g transform="translate(-190,-94) scale(1,1)"><path fill="none" stroke="#000000" d="M 815.1626748576241 250.790482243984 L 805 255 L 815.1626748576241 259.209517756016" stroke-miterlimit="10"/></g><g transform="translate(-190,-94) scale(1,1)"><g><path fill="none" stroke="none"/><text fill="#000000" stroke="none" font-family="Arial" font-size="13px" font-style="normal" font-weight="normal" text-decoration="none" x="726.7705078125" y="167.5"> [canAdd == 0 &amp;&amp; trying &lt;=10]</text></g></g><g transform="translate(-190,-94) scale(1,1)"><path fill="none" stroke="#000000" d="M 600 286 L 600 368" stroke-miterlimit="10"/></g><g transform="translate(-190,-94) scale(1,1)"><path fill="none" stroke="#000000" d="M 595.790482243984 357.83732514237585 L 600 368 L 604.209517756016 357.83732514237585" stroke-miterlimit="10"/></g><g transform="translate(-190,-94) scale(1,1)"><g><path fill="none" stroke="none"/><text fill="#000000" stroke="none" font-family="Arial" font-size="13px" font-style="normal" font-weight="normal" text-decoration="none" x="414.579345703125" y="335.5"> [canAdd == 1 &amp;&amp; trying &lt;= 10]</text></g></g><g transform="translate(-190,-94) scale(1,1)"><path fill="none" stroke="#000000" d="M 768 286 L 768 376" stroke-miterlimit="10"/></g><g transform="translate(-190,-94) scale(1,1)"><path fill="none" stroke="#000000" d="M 763.790482243984 365.83732514237585 L 768 376 L 772.209517756016 365.83732514237585" stroke-miterlimit="10"/></g><g transform="translate(-190,-94) scale(1,1)"><g><path fill="none" stroke="none"/><text fill="#000000" stroke="none" font-family="Arial" font-size="13px" font-style="normal" font-weight="normal" text-decoration="none" x="785.666015625" y="336.5"> [canAdd == 0 &amp;&amp; trying &gt; 9]</text></g></g><g transform="translate(-190,-94) scale(1,1)"><path fill="none" stroke="#000000" d="M 600 415 L 600 464 L 680 464" stroke-miterlimit="10"/></g><g transform="translate(-190,-94) scale(1,1)"><path fill="none" stroke="#000000" d="M 669.8373251423759 468.209517756016 L 680 464 L 669.8373251423758 459.790482243984" stroke-miterlimit="10"/></g><g transform="translate(-190,-94) scale(1,1)"><g><path fill="none" stroke="none"/><text fill="#000000" stroke="none" font-family="Arial" font-size="13px" font-style="normal" font-weight="normal" text-decoration="none" x="439.454345703125" y="459.5">addEquipmentSucceeded()</text></g></g><g transform="translate(-190,-94) scale(1,1)"><path fill="none" stroke="#000000" d="M 768 415 L 768 464 L 705 464" stroke-miterlimit="10"/></g><g transform="translate(-190,-94) scale(1,1)"><path fill="none" stroke="#000000" d="M 715.1626748576241 459.790482243984 L 705 464 L 715.1626748576241 468.209517756016" stroke-miterlimit="10"/></g><g transform="translate(-190,-94) scale(1,1)"><g><path fill="none" stroke="none"/><text fill="#000000" stroke="none" font-family="Arial" font-size="13px" font-style="normal" font-weight="normal" text-decoration="none" x="777.154052734375" y="460.5">addEquipmentFailed()</text></g></g><g transform="translate(-190,-94) scale(1,1)"><path fill="#C0C0C0" stroke="none" d="M 207 310 C 207 306.1340064 210.1340064 303 214 303 C 217.8659936 303 221 306.1340064 221 310 C 221 313.8659936 217.8659936 317 214 317 C 210.1340064 317 207 313.8659936 207 310 Z" opacity="0.2"/></g><g transform="translate(-190,-94) scale(1,1)"><path fill="#ffffff" stroke="none" d="M 200 303 C 200 299.1340064 203.1340064 296 207 296 C 210.8659936 296 214 299.1340064 214 303 C 214 306.8659936 210.8659936 310 207 310 C 203.1340064 310 200 306.8659936 200 303 Z"/></g><g transform="translate(-190,-94) scale(1,1)"><path fill="none" stroke="#000000" d="M 200 303 C 200 299.1340064 203.1340064 296 207 296 C 210.8659936 296 214 299.1340064 214 303 C 214 306.8659936 210.8659936 310 207 310 C 203.1340064 310 200 306.8659936 200 303 Z" stroke-miterlimit="10"/></g><g transform="translate(-190,-94) scale(1,1)"><path fill="none" stroke="#000000" d="M 214 304 L 360 304" stroke-miterlimit="10"/></g><g transform="translate(-190,-94) scale(1,1)"><path fill="none" stroke="#000000" d="M 349.83732514237585 308.209517756016 L 360 304 L 349.83732514237585 299.790482243984" stroke-miterlimit="10"/></g><g transform="translate(-190,-94) scale(1,1)"><g><path fill="none" stroke="none"/><text fill="#000000" stroke="none" font-family="Arial" font-size="13px" font-style="normal" font-weight="normal" text-decoration="none" x="222.451416015625" y="295.5">addEquipmentFor(a,e)</text></g></g></g></svg>