<svg version="1.1" xmlns="http://www.w3.org/2000/svg" xmlns:xlink="http://www.w3.org/1999/xlink" width="1053.796875" height="585"><defs/><g><g transform="translate(2,-86) scale(1,1)"><rect fill="#C0C0C0" stroke="none" x="471" y="439" width="231.39013671875" height="100" opacity="0.2"/></g><g transform="translate(2,-86) scale(1,1)"><rect fill="#ffffff" stroke="none" x="464" y="432" width="231.39013671875" height="100"/></g><g transform="translate(2,-86) scale(1,1)"><path fill="none" stroke="#000000" d="M 464 432 L 695.39013671875 432 L 695.39013671875 532 L 464 532 L 464 432 Z Z" stroke-miterlimit="10"/></g><g transform="translate(2,-86) scale(1,1)"><path fill="none" stroke="#000000" d="M 464 457 L 695.39013671875 457" stroke-miterlimit="10"/></g><g transform="translate(2,-86) scale(1,1)"><path fill="none" stroke="#000000" d="M 464 495 L 695.39013671875 495" stroke-miterlimit="10"/></g><g transform="translate(2,-86) scale(1,1)"><g><path fill="none" stroke="none"/><text fill="#000000" stroke="none" font-family="Arial" font-size="13px" font-style="normal" font-weight="bold" text-decoration="none" x="548.6201171875" y="451.5">Equipment</text></g></g><g transform="translate(2,-86) scale(1,1)"><g><path fill="none" stroke="none"/><text fill="#000000" stroke="none" font-family="Arial" font-size="13px" font-style="normal" font-weight="normal" text-decoration="none" x="469" y="474.5">-type: int</text></g></g><g transform="translate(2,-86) scale(1,1)"><g><path fill="none" stroke="none"/><text fill="#000000" stroke="none" font-family="Arial" font-size="13px" font-style="normal" font-weight="normal" text-decoration="none" x="469" y="489.5">-price: double</text></g></g><g transform="translate(2,-86) scale(1,1)"><g><path fill="none" stroke="none"/><text fill="#000000" stroke="none" font-family="Arial" font-size="13px" font-style="normal" font-weight="normal" text-decoration="none" x="469" y="512.5">+getPrice(): double</text></g></g><g transform="translate(2,-86) scale(1,1)"><g><path fill="none" stroke="none"/><text fill="#000000" stroke="none" font-family="Arial" font-size="13px" font-style="normal" font-weight="normal" text-decoration="none" x="469" y="527.5">+beUsed(a: Adventurer): boolean</text></g></g><g transform="translate(2,-86) scale(1,1)"><rect fill="#C0C0C0" stroke="none" x="767" y="103" width="281.796875" height="145" opacity="0.2"/></g><g transform="translate(2,-86) scale(1,1)"><rect fill="#ffffff" stroke="none" x="760" y="96" width="281.796875" height="145"/></g><g transform="translate(2,-86) scale(1,1)"><path fill="none" stroke="#000000" d="M 760 96 L 1041.796875 96 L 1041.796875 241 L 760 241 L 760 96 Z Z" stroke-miterlimit="10"/></g><g transform="translate(2,-86) scale(1,1)"><path fill="none" stroke="#000000" d="M 760 121 L 1041.796875 121" stroke-miterlimit="10"/></g><g transform="translate(2,-86) scale(1,1)"><path fill="none" stroke="#000000" d="M 760 174 L 1041.796875 174" stroke-miterlimit="10"/></g><g transform="translate(2,-86) scale(1,1)"><g><path fill="none" stroke="none"/><text fill="#000000" stroke="none" font-family="Arial" font-size="13px" font-style="normal" font-weight="bold" text-decoration="none" x="869.10302734375" y="115.5">Adventurer</text></g></g><g transform="translate(2,-86) scale(1,1)"><g><path fill="none" stroke="none"/><text fill="#000000" stroke="none" font-family="Arial" font-size="13px" font-style="normal" font-weight="normal" text-decoration="none" x="765" y="138.5">-health: double</text></g></g><g transform="translate(2,-86) scale(1,1)"><g><path fill="none" stroke="none"/><text fill="#000000" stroke="none" font-family="Arial" font-size="13px" font-style="normal" font-weight="normal" text-decoration="none" x="765" y="153.5">-exp: double</text></g></g><g transform="translate(2,-86) scale(1,1)"><g><path fill="none" stroke="none"/><text fill="#000000" stroke="none" font-family="Arial" font-size="13px" font-style="normal" font-weight="normal" text-decoration="none" x="765" y="168.5">-money: double</text></g></g><g transform="translate(2,-86) scale(1,1)"><g><path fill="none" stroke="none"/><text fill="#000000" stroke="none" font-family="Arial" font-size="13px" font-style="normal" font-weight="normal" text-decoration="none" x="765" y="191.5">+Adventurer()</text></g></g><g transform="translate(2,-86) scale(1,1)"><g><path fill="none" stroke="none"/><text fill="#000000" stroke="none" font-family="Arial" font-size="13px" font-style="normal" font-weight="normal" text-decoration="none" x="765" y="206.5">+addEquipment(e: Equipment): boolean</text></g></g><g transform="translate(2,-86) scale(1,1)"><g><path fill="none" stroke="none"/><text fill="#000000" stroke="none" font-family="Arial" font-size="13px" font-style="normal" font-weight="normal" text-decoration="none" x="765" y="221.5">+useEquipment(e: Equipment): boolean</text></g></g><g transform="translate(2,-86) scale(1,1)"><g><path fill="none" stroke="none"/><text fill="#000000" stroke="none" font-family="Arial" font-size="13px" font-style="normal" font-weight="normal" text-decoration="none" x="765" y="236.5">+removeEquipment(e: Equipment): boolean</text></g></g><g transform="translate(2,-86) scale(1,1)"><rect fill="#C0C0C0" stroke="none" x="735" y="359" width="281.796875" height="160" opacity="0.2"/></g><g transform="translate(2,-86) scale(1,1)"><rect fill="#ffffff" stroke="none" x="728" y="352" width="281.796875" height="160"/></g><g transform="translate(2,-86) scale(1,1)"><path fill="none" stroke="#000000" d="M 728 352 L 1009.796875 352 L 1009.796875 512 L 728 512 L 728 352 Z Z" stroke-miterlimit="10"/></g><g transform="translate(2,-86) scale(1,1)"><path fill="none" stroke="#000000" d="M 728 377 L 1009.796875 377" stroke-miterlimit="10"/></g><g transform="translate(2,-86) scale(1,1)"><path fill="none" stroke="#000000" d="M 728 415 L 1009.796875 415" stroke-miterlimit="10"/></g><g transform="translate(2,-86) scale(1,1)"><g><path fill="none" stroke="none"/><text fill="#000000" stroke="none" font-family="Arial" font-size="13px" font-style="normal" font-weight="bold" text-decoration="none" x="840.35302734375" y="371.5">Knapsack</text></g></g><g transform="translate(2,-86) scale(1,1)"><g><path fill="none" stroke="none"/><text fill="#000000" stroke="none" font-family="Arial" font-size="13px" font-style="normal" font-weight="normal" text-decoration="none" x="733" y="394.5">-capacity: int</text></g></g><g transform="translate(2,-86) scale(1,1)"><g><path fill="none" stroke="none"/><text fill="#000000" stroke="none" font-family="Arial" font-size="13px" font-style="normal" font-weight="normal" text-decoration="none" x="733" y="409.5">-equipmentList: Vector&lt;Equipment&gt;</text></g></g><g transform="translate(2,-86) scale(1,1)"><g><path fill="none" stroke="none"/><text fill="#000000" stroke="none" font-family="Arial" font-size="13px" font-style="normal" font-weight="normal" text-decoration="none" x="733" y="432.5">+Knapsack()</text></g></g><g transform="translate(2,-86) scale(1,1)"><g><path fill="none" stroke="none"/><text fill="#000000" stroke="none" font-family="Arial" font-size="13px" font-style="normal" font-weight="normal" text-decoration="none" x="733" y="447.5">+getEquipment(eid: String): Equipment</text></g></g><g transform="translate(2,-86) scale(1,1)"><g><path fill="none" stroke="none"/><text fill="#000000" stroke="none" font-family="Arial" font-size="13px" font-style="normal" font-weight="normal" text-decoration="none" x="733" y="462.5">+addEquipment(e: Equipment): boolean</text></g></g><g transform="translate(2,-86) scale(1,1)"><g><path fill="none" stroke="none"/><text fill="#000000" stroke="none" font-family="Arial" font-size="13px" font-style="normal" font-weight="normal" text-decoration="none" x="733" y="477.5">+removeEquipment(e: Equipment): boolean</text></g></g><g transform="translate(2,-86) scale(1,1)"><g><path fill="none" stroke="none"/><text fill="#000000" stroke="none" font-family="Arial" font-size="13px" font-style="normal" font-weight="normal" text-decoration="none" x="733" y="492.5">+isEmpty(): boolean</text></g></g><g transform="translate(2,-86) scale(1,1)"><g><path fill="none" stroke="none"/><text fill="#000000" stroke="none" font-family="Arial" font-size="13px" font-style="normal" font-weight="normal" text-decoration="none" x="733" y="507.5">-isFull(): boolean</text></g></g><g transform="translate(2,-86) scale(1,1)"><rect fill="#C0C0C0" stroke="none" x="271" y="583" width="212.23291015625" height="85" opacity="0.2"/></g><g transform="translate(2,-86) scale(1,1)"><rect fill="#ffffff" stroke="none" x="264" y="576" width="212.23291015625" height="85"/></g><g transform="translate(2,-86) scale(1,1)"><path fill="none" stroke="#000000" d="M 264 576 L 476.23291015625 576 L 476.23291015625 661 L 264 661 L 264 576 Z Z" stroke-miterlimit="10"/></g><g transform="translate(2,-86) scale(1,1)"><path fill="none" stroke="#000000" d="M 264 601 L 476.23291015625 601" stroke-miterlimit="10"/></g><g transform="translate(2,-86) scale(1,1)"><path fill="none" stroke="#000000" d="M 264 624 L 476.23291015625 624" stroke-miterlimit="10"/></g><g transform="translate(2,-86) scale(1,1)"><g><path fill="none" stroke="none"/><text fill="#000000" stroke="none" font-family="Arial" font-size="13px" font-style="normal" font-weight="bold" text-decoration="none" x="353.4951171875" y="595.5">Bottle</text></g></g><g transform="translate(2,-86) scale(1,1)"><g><path fill="none" stroke="none"/><text fill="#000000" stroke="none" font-family="Arial" font-size="13px" font-style="normal" font-weight="normal" text-decoration="none" x="269" y="618.5">-capacity: double</text></g></g><g transform="translate(2,-86) scale(1,1)"><g><path fill="none" stroke="none"/><text fill="#000000" stroke="none" font-family="Arial" font-size="13px" font-style="normal" font-weight="normal" text-decoration="none" x="269" y="641.5">+isEmpty(): boolean</text></g></g><g transform="translate(2,-86) scale(1,1)"><g><path fill="none" stroke="none"/><text fill="#000000" stroke="none" font-family="Arial" font-size="13px" font-style="normal" font-weight="normal" text-decoration="none" x="269" y="656.5">-beUsed(a: Adventurer): boolean</text></g></g><g transform="translate(2,-86) scale(1,1)"><path fill="none" stroke="#000000" d="M 872 241 L 872 352" stroke-miterlimit="10"/></g><g transform="translate(2,-86) scale(1,1)"><path fill="none" stroke="#000000" d="M 867.790482243984 341.83732514237585 L 872 352 L 876.209517756016 341.83732514237585" stroke-miterlimit="10"/></g><g transform="translate(2,-86) scale(1,1)"><g><path fill="none" stroke="none"/><text fill="#000000" stroke="none" font-family="Arial" font-size="13px" font-style="normal" font-weight="normal" text-decoration="none" x="855.69677734375" y="268.5">1</text></g></g><g transform="translate(2,-86) scale(1,1)"><g><path fill="none" stroke="none"/><text fill="#000000" stroke="none" font-family="Arial" font-size="13px" font-style="normal" font-weight="normal" text-decoration="none" x="855.69677734375" y="336.5">1</text></g></g><g transform="translate(2,-86) scale(1,1)"><path fill="none" stroke="#000000" d="M 476 626 L 536 626 L 536 532" stroke-miterlimit="10"/></g><g transform="translate(2,-86) scale(1,1)"><path fill="#FFFFFF" stroke="none" d="M 544.419035512032 552.3253497152483 L 536 532 L 527.580964487968 552.3253497152483"/></g><g transform="translate(2,-86) scale(1,1)"><path fill="none" stroke="#000000" d="M 544.419035512032 552.3253497152483 L 536 532 L 527.580964487968 552.3253497152483 L 544.419035512032 552.3253497152483" stroke-miterlimit="10"/></g><g transform="translate(2,-86) scale(1,1)"><rect fill="#C0C0C0" stroke="none" x="687" y="583" width="216.2509765625" height="85" opacity="0.2"/></g><g transform="translate(2,-86) scale(1,1)"><rect fill="#ffffff" stroke="none" x="680" y="576" width="216.2509765625" height="85"/></g><g transform="translate(2,-86) scale(1,1)"><path fill="none" stroke="#000000" d="M 680 576 L 896.2509765625 576 L 896.2509765625 661 L 680 661 L 680 576 Z Z" stroke-miterlimit="10"/></g><g transform="translate(2,-86) scale(1,1)"><path fill="none" stroke="#000000" d="M 680 601 L 896.2509765625 601" stroke-miterlimit="10"/></g><g transform="translate(2,-86) scale(1,1)"><path fill="none" stroke="#000000" d="M 680 624 L 896.2509765625 624" stroke-miterlimit="10"/></g><g transform="translate(2,-86) scale(1,1)"><g><path fill="none" stroke="none"/><text fill="#000000" stroke="none" font-family="Arial" font-size="13px" font-style="normal" font-weight="bold" text-decoration="none" x="769.701416015625" y="595.5">Sword</text></g></g><g transform="translate(2,-86) scale(1,1)"><g><path fill="none" stroke="none"/><text fill="#000000" stroke="none" font-family="Arial" font-size="13px" font-style="normal" font-weight="normal" text-decoration="none" x="685" y="618.5">-sharpness: double</text></g></g><g transform="translate(2,-86) scale(1,1)"><g><path fill="none" stroke="none"/><text fill="#000000" stroke="none" font-family="Arial" font-size="13px" font-style="normal" font-weight="normal" text-decoration="none" x="685" y="641.5">+getSharpness(): double</text></g></g><g transform="translate(2,-86) scale(1,1)"><g><path fill="none" stroke="none"/><text fill="#000000" stroke="none" font-family="Arial" font-size="13px" font-style="normal" font-weight="normal" text-decoration="none" x="685" y="656.5">+beUsed(a: Adventurer): boolean</text></g></g><g transform="translate(2,-86) scale(1,1)"><path fill="none" stroke="#000000" d="M 680 624 L 616 624 L 616 532" stroke-miterlimit="10"/></g><g transform="translate(2,-86) scale(1,1)"><path fill="#FFFFFF" stroke="none" d="M 624.419035512032 552.3253497152483 L 616 532 L 607.580964487968 552.3253497152483"/></g><g transform="translate(2,-86) scale(1,1)"><path fill="none" stroke="#000000" d="M 624.419035512032 552.3253497152483 L 616 532 L 607.580964487968 552.3253497152483 L 624.419035512032 552.3253497152483" stroke-miterlimit="10"/></g><g transform="translate(2,-86) scale(1,1)"><rect fill="#C0C0C0" stroke="none" x="471" y="199" width="231.39013671875" height="130" opacity="0.2"/></g><g transform="translate(2,-86) scale(1,1)"><rect fill="#ffffff" stroke="none" x="464" y="192" width="231.39013671875" height="130"/></g><g transform="translate(2,-86) scale(1,1)"><path fill="none" stroke="#000000" d="M 464 192 L 695.39013671875 192 L 695.39013671875 322 L 464 322 L 464 192 Z Z" stroke-miterlimit="10"/></g><g transform="translate(2,-86) scale(1,1)"><path fill="none" stroke="#000000" d="M 464 217 L 695.39013671875 217" stroke-miterlimit="10"/></g><g transform="translate(2,-86) scale(1,1)"><path fill="none" stroke="#000000" d="M 464 255 L 695.39013671875 255" stroke-miterlimit="10"/></g><g transform="translate(2,-86) scale(1,1)"><g><path fill="none" stroke="none"/><text fill="#000000" stroke="none" font-family="Arial" font-size="13px" font-style="normal" font-weight="bold" text-decoration="none" x="546.826904296875" y="211.5">Commodity</text></g></g><g transform="translate(2,-86) scale(1,1)"><g><path fill="none" stroke="none"/><text fill="#000000" stroke="none" font-family="Arial" font-size="13px" font-style="normal" font-weight="normal" text-decoration="none" x="469" y="234.5">-id: int</text></g></g><g transform="translate(2,-86) scale(1,1)"><g><path fill="none" stroke="none"/><text fill="#000000" stroke="none" font-family="Arial" font-size="13px" font-style="normal" font-weight="normal" text-decoration="none" x="469" y="249.5">-name: String</text></g></g><g transform="translate(2,-86) scale(1,1)"><g><path fill="none" stroke="none"/><text fill="#000000" stroke="none" font-family="Arial" font-size="13px" font-style="normal" font-weight="normal" text-decoration="none" x="469" y="272.5">+getId(): int</text></g></g><g transform="translate(2,-86) scale(1,1)"><g><path fill="none" stroke="none"/><text fill="#000000" stroke="none" font-family="Arial" font-size="13px" font-style="normal" font-weight="normal" text-decoration="none" x="469" y="287.5">+getName(): String</text></g></g><g transform="translate(2,-86) scale(1,1)"><g><path fill="none" stroke="none"/><text fill="#000000" stroke="none" font-family="Arial" font-size="13px" font-style="normal" font-weight="normal" text-decoration="none" x="469" y="302.5">+beUsed(a: Adventurer): boolean</text></g></g><g transform="translate(2,-86) scale(1,1)"><path fill="none" stroke="#000000" d="M 576 432 L 576 322" stroke-miterlimit="10"/></g><g transform="translate(2,-86) scale(1,1)"><path fill="#FFFFFF" stroke="none" d="M 584.419035512032 342.3253497152483 L 576 322 L 567.580964487968 342.3253497152483"/></g><g transform="translate(2,-86) scale(1,1)"><path fill="none" stroke="#000000" d="M 584.419035512032 342.3253497152483 L 576 322 L 567.580964487968 342.3253497152483 L 584.419035512032 342.3253497152483" stroke-miterlimit="10"/></g><g transform="translate(2,-86) scale(1,1)"><rect fill="#C0C0C0" stroke="none" x="15" y="111" width="393.28076171875" height="222" opacity="0.2"/></g><g transform="translate(2,-86) scale(1,1)"><rect fill="#ffffff" stroke="none" x="8" y="104" width="393.28076171875" height="222"/></g><g transform="translate(2,-86) scale(1,1)"><path fill="none" stroke="#000000" d="M 8 104 L 401.28076171875 104 L 401.28076171875 326 L 8 326 L 8 104 Z Z" stroke-miterlimit="10"/></g><g transform="translate(2,-86) scale(1,1)"><path fill="none" stroke="#000000" d="M 8 129 L 401.28076171875 129" stroke-miterlimit="10"/></g><g transform="translate(2,-86) scale(1,1)"><path fill="none" stroke="#000000" d="M 8 199 L 401.28076171875 199" stroke-miterlimit="10"/></g><g transform="translate(2,-86) scale(1,1)"><g><path fill="none" stroke="none"/><text fill="#000000" stroke="none" font-family="Arial" font-size="13px" font-style="normal" font-weight="bold" text-decoration="none" x="146.1181640625" y="123.5">CommodityManager</text></g></g><g transform="translate(2,-86) scale(1,1)"><g><path fill="none" stroke="none"/><text fill="#000000" stroke="none" font-family="Arial" font-size="13px" font-style="normal" font-weight="normal" text-decoration="none" x="13" y="148.5">-eids: Vector&lt;Integer&gt;</text></g></g><g transform="translate(2,-86) scale(1,1)"><g><path fill="none" stroke="none"/><text fill="#000000" stroke="none" font-family="Arial" font-size="13px" font-style="normal" font-weight="normal" text-decoration="none" x="13" y="163.5">-aids: Vector&lt;Integer&gt;</text></g></g><g transform="translate(2,-86) scale(1,1)"><g><path fill="none" stroke="none"/><text fill="#000000" stroke="none" font-family="Arial" font-size="13px" font-style="normal" font-weight="normal" text-decoration="none" x="13" y="178.5">-trying: int</text></g></g><g transform="translate(2,-86) scale(1,1)"><g><path fill="none" stroke="none"/><text fill="#000000" stroke="none" font-family="Arial" font-size="13px" font-style="normal" font-weight="normal" text-decoration="none" x="13" y="193.5">-canAdd: boolean</text></g></g><g transform="translate(2,-86) scale(1,1)"><g><path fill="none" stroke="none"/><text fill="#000000" stroke="none" font-family="Arial" font-size="13px" font-style="normal" font-weight="normal" text-decoration="none" x="13" y="216.5">+addAdventurer(): boolean</text></g></g><g transform="translate(2,-86) scale(1,1)"><g><path fill="none" stroke="none"/><text fill="#000000" stroke="none" font-family="Arial" font-size="13px" font-style="normal" font-weight="normal" text-decoration="none" x="13" y="231.5">+removeEquipment(): boolean</text></g></g><g transform="translate(2,-86) scale(1,1)"><g><path fill="none" stroke="none"/><text fill="#000000" stroke="none" font-family="Arial" font-size="13px" font-style="normal" font-weight="normal" text-decoration="none" x="13" y="246.5">+getAdventurer(aid: int): Adventurer</text></g></g><g transform="translate(2,-86) scale(1,1)"><g><path fill="none" stroke="none"/><text fill="#000000" stroke="none" font-family="Arial" font-size="13px" font-style="normal" font-weight="normal" text-decoration="none" x="13" y="261.5">+getEquipment(eid: int): Equipment</text></g></g><g transform="translate(2,-86) scale(1,1)"><g><path fill="none" stroke="none"/><text fill="#000000" stroke="none" font-family="Arial" font-size="13px" font-style="normal" font-weight="normal" text-decoration="none" x="13" y="276.5">+addEquipmentFor(a: Adventurer, e: Equipment): boolean</text></g></g><g transform="translate(2,-86) scale(1,1)"><g><path fill="none" stroke="none"/><text fill="#000000" stroke="none" font-family="Arial" font-size="13px" font-style="normal" font-weight="normal" text-decoration="none" x="13" y="291.5">+increaseTrying(): void</text></g></g><g transform="translate(2,-86) scale(1,1)"><g><path fill="none" stroke="none"/><text fill="#000000" stroke="none" font-family="Arial" font-size="13px" font-style="normal" font-weight="normal" text-decoration="none" x="13" y="306.5">+addEquipmentSucceeded(): void</text></g></g><g transform="translate(2,-86) scale(1,1)"><g><path fill="none" stroke="none"/><text fill="#000000" stroke="none" font-family="Arial" font-size="13px" font-style="normal" font-weight="normal" text-decoration="none" x="13" y="321.5">+addEquipmentFailed(): void</text></g></g><g transform="translate(2,-86) scale(1,1)"><rect fill="#C0C0C0" stroke="none" x="199" y="423" width="50.919921875" height="44" opacity="0.2"/></g><g transform="translate(2,-86) scale(1,1)"><rect fill="#ffffff" stroke="none" x="192" y="416" width="50.919921875" height="44"/></g><g transform="translate(2,-86) scale(1,1)"><path fill="none" stroke="#000000" d="M 192 416 L 242.919921875 416 L 242.919921875 460 L 192 460 L 192 416 Z Z" stroke-miterlimit="10"/></g><g transform="translate(2,-86) scale(1,1)"><path fill="none" stroke="#000000" d="M 192 441 L 242.919921875 441" stroke-miterlimit="10"/></g><g transform="translate(2,-86) scale(1,1)"><path fill="none" stroke="#000000" d="M 192 451 L 242.919921875 451" stroke-miterlimit="10"/></g><g transform="translate(2,-86) scale(1,1)"><g><path fill="none" stroke="none"/><text fill="#000000" stroke="none" font-family="Arial" font-size="13px" font-style="normal" font-weight="bold" text-decoration="none" x="205.904052734375" y="435.5">GUI</text></g></g><g transform="translate(2,-86) scale(1,1)"><path fill="none" stroke="#000000" d="M 221 326 L 221 416" stroke-miterlimit="10"/></g><g transform="translate(2,-86) scale(1,1)"><g><path fill="none" stroke="none"/><text fill="#000000" stroke="none" font-family="Arial" font-size="13px" font-style="normal" font-weight="normal" text-decoration="none" x="204.69677734375" y="353.5">1</text></g></g><g transform="translate(2,-86) scale(1,1)"><g><path fill="none" stroke="none"/><text fill="#000000" stroke="none" font-family="Arial" font-size="13px" font-style="normal" font-weight="normal" text-decoration="none" x="204.69677734375" y="400.5">1</text></g></g><g transform="translate(2,-86) scale(1,1)"><path fill="none" stroke="#000000" d="M 401 272 L 464 272" stroke-miterlimit="10"/></g><g transform="translate(2,-86) scale(1,1)"><g><path fill="none" stroke="none"/><text fill="#000000" stroke="none" font-family="Arial" font-size="13px" font-style="normal" font-weight="normal" text-decoration="none" x="418.69677734375" y="290.5">1</text></g></g><g transform="translate(2,-86) scale(1,1)"><g><path fill="none" stroke="none"/><text fill="#000000" stroke="none" font-family="Arial" font-size="13px" font-style="normal" font-weight="normal" text-decoration="none" x="439.928466796875" y="290.5">*</text></g></g><g transform="translate(2,-86) scale(1,1)"><path fill="none" stroke="#000000" d="M 401 144 L 760 144" stroke-miterlimit="10"/></g><g transform="translate(2,-86) scale(1,1)"><g><path fill="none" stroke="none"/><text fill="#000000" stroke="none" font-family="Arial" font-size="13px" font-style="normal" font-weight="normal" text-decoration="none" x="418.69677734375" y="162.5">1</text></g></g><g transform="translate(2,-86) scale(1,1)"><g><path fill="none" stroke="none"/><text fill="#000000" stroke="none" font-family="Arial" font-size="13px" font-style="normal" font-weight="normal" text-decoration="none" x="735.928466796875" y="162.5">*</text></g></g></g></svg>