<svg version="1.1" xmlns="http://www.w3.org/2000/svg" xmlns:xlink="http://www.w3.org/1999/xlink" width="199.97900390625" height="189"><defs/><g><g transform="translate(-224,-156) scale(1,1)"><path fill="#C0C0C0" stroke="none" d="M 241 322.5 C 241 317.2532944 245.2532944 313 250.5 313 C 255.7467056 313 260 317.2532944 260 322.5 C 260 327.7467056 255.7467056 332 250.5 332 C 245.2532944 332 241 327.7467056 241 322.5 Z" opacity="0.2"/></g><g transform="translate(-224,-156) scale(1,1)"><path fill="#000000" stroke="none" d="M 234 315.5 C 234 310.2532944 238.2532944 306 243.5 306 C 248.7467056 306 253 310.2532944 253 315.5 C 253 320.7467056 248.7467056 325 243.5 325 C 238.2532944 325 234 320.7467056 234 315.5 Z"/></g><g transform="translate(-224,-156) scale(1,1)"><path fill="#C0C0C0" stroke="none" d="M 329 303 L 368 303 Q 378 303 378 313 L 378 332 Q 378 342 368 342 L 329 342 Q 319 342 319 332 L 319 313 Q 319 303 329 303 Z" opacity="0.2"/></g><g transform="translate(-224,-156) scale(1,1)"><path fill="#ffffff" stroke="none" d="M 322 296 L 361 296 Q 371 296 371 306 L 371 325 Q 371 335 361 335 L 322 335 Q 312 335 312 325 L 312 306 Q 312 296 322 296 Z"/></g><g transform="translate(-224,-156) scale(1,1)"><path fill="none" stroke="#000000" d="M 322 296 L 361 296 Q 371 296 371 306 L 371 325 Q 371 335 361 335 L 322 335 Q 312 335 312 325 L 312 306 Q 312 296 322 296 Z" stroke-miterlimit="10"/></g><g transform="translate(-224,-156) scale(1,1)"><g><path fill="none" stroke="none"/><text fill="#000000" stroke="none" font-family="Arial" font-size="13px" font-style="normal" font-weight="bold" text-decoration="none" x="327.78271484375" y="314">loop</text></g></g><g transform="translate(-224,-156) scale(1,1)"><path fill="none" stroke="#000000" d="M 341 296 L 341 275 L 400 275 L 400 315 L 371 315" stroke-miterlimit="10"/></g><g transform="translate(-224,-156) scale(1,1)"><path fill="none" stroke="#000000" d="M 381.16267485762415 310.790482243984 L 371 315 L 381.16267485762415 319.209517756016" stroke-miterlimit="10"/></g><g transform="translate(-224,-156) scale(1,1)"><g><path fill="none" stroke="none"/><text fill="#000000" stroke="none" font-family="Arial" font-size="13px" font-style="normal" font-weight="normal" text-decoration="none" x="345.486328125" y="177">borrow(),</text><text fill="#000000" stroke="none" font-family="Arial" font-size="13px" font-style="normal" font-weight="normal" text-decoration="none" x="336.812255859375" y="190">singleDay(),</text><text fill="#000000" stroke="none" font-family="Arial" font-size="13px" font-style="normal" font-weight="normal" text-decoration="none" x="348.736328125" y="203">repair(),</text><text fill="#000000" stroke="none" font-family="Arial" font-size="13px" font-style="normal" font-weight="normal" text-decoration="none" x="332.47998046875" y="216">importBook(),</text><text fill="#000000" stroke="none" font-family="Arial" font-size="13px" font-style="normal" font-weight="normal" text-decoration="none" x="328.5" y="229">remandBook(),</text><text fill="#000000" stroke="none" font-family="Arial" font-size="13px" font-style="normal" font-weight="normal" text-decoration="none" x="332.4736328125" y="242">exportBook(),</text><text fill="#000000" stroke="none" font-family="Arial" font-size="13px" font-style="normal" font-weight="normal" text-decoration="none" x="338.97998046875" y="255">distribute(),</text><text fill="#000000" stroke="none" font-family="Arial" font-size="13px" font-style="normal" font-weight="normal" text-decoration="none" x="345.121337890625" y="268">remand()</text></g></g><g transform="translate(-224,-156) scale(1,1)"><path fill="none" stroke="#000000" d="M 254 315 L 311 315" stroke-miterlimit="10"/></g><g transform="translate(-224,-156) scale(1,1)"><path fill="none" stroke="#000000" d="M 300.83732514237585 319.209517756016 L 311 315 L 300.83732514237585 310.790482243984" stroke-miterlimit="10"/></g></g></svg>