<svg version="1.1" xmlns="http://www.w3.org/2000/svg" xmlns:xlink="http://www.w3.org/1999/xlink" width="1077" height="1034"><defs/><g><g transform="translate(-470,-102) scale(1,1)"><rect fill="#C0C0C0" stroke="none" x="863" y="119" width="426.7138671875" height="145" opacity="0.2"/></g><g transform="translate(-470,-102) scale(1,1)"><rect fill="#ffffff" stroke="none" x="856" y="112" width="426.7138671875" height="145"/></g><g transform="translate(-470,-102) scale(1,1)"><path fill="none" stroke="#000000" d="M 856 112 L 1282.7138671875 112 L 1282.7138671875 257 L 856 257 L 856 112 Z Z" stroke-miterlimit="10"/></g><g transform="translate(-470,-102) scale(1,1)"><path fill="none" stroke="#000000" d="M 856 137 L 1282.7138671875 137" stroke-miterlimit="10"/></g><g transform="translate(-470,-102) scale(1,1)"><path fill="none" stroke="#000000" d="M 856 190 L 1282.7138671875 190" stroke-miterlimit="10"/></g><g transform="translate(-470,-102) scale(1,1)"><g><path fill="none" stroke="none"/><text fill="#000000" stroke="none" font-family="Arial" font-size="13px" font-style="normal" font-weight="bold" text-decoration="none" x="1048.5302734375" y="131.5">Worker</text></g></g><g transform="translate(-470,-102) scale(1,1)"><g><path fill="none" stroke="none"/><text fill="#000000" stroke="none" font-family="Arial" font-size="13px" font-style="normal" font-weight="normal" text-decoration="none" x="861" y="154.5">-workerId: String</text></g></g><g transform="translate(-470,-102) scale(1,1)"><g><path fill="none" stroke="none"/><text fill="#000000" stroke="none" font-family="Arial" font-size="13px" font-style="normal" font-weight="normal" text-decoration="none" x="861" y="169.5">-workerName: String</text></g></g><g transform="translate(-470,-102) scale(1,1)"><g><path fill="none" stroke="none"/><text fill="#000000" stroke="none" font-family="Arial" font-size="13px" font-style="normal" font-weight="normal" text-decoration="none" x="861" y="184.5">-requestList: RequestList</text></g></g><g transform="translate(-470,-102) scale(1,1)"><g><path fill="none" stroke="none"/><text fill="#000000" stroke="none" font-family="Arial" font-size="13px" font-style="normal" font-weight="normal" text-decoration="none" x="861" y="207.5">+getWorkerId(): String</text></g></g><g transform="translate(-470,-102) scale(1,1)"><g><path fill="none" stroke="none"/><text fill="#000000" stroke="none" font-family="Arial" font-size="13px" font-style="normal" font-weight="normal" text-decoration="none" x="861" y="222.5">+getWorkerName(): String</text></g></g><g transform="translate(-470,-102) scale(1,1)"><g><path fill="none" stroke="none"/><text fill="#000000" stroke="none" font-family="Arial" font-size="13px" font-style="normal" font-weight="normal" text-decoration="none" x="861" y="237.5">+getRequestList(): RequestList</text></g></g><g transform="translate(-470,-102) scale(1,1)"><rect fill="#C0C0C0" stroke="none" x="567" y="607" width="189.30517578125" height="130" opacity="0.2"/></g><g transform="translate(-470,-102) scale(1,1)"><rect fill="#ffffff" stroke="none" x="560" y="600" width="189.30517578125" height="130"/></g><g transform="translate(-470,-102) scale(1,1)"><path fill="none" stroke="#000000" d="M 560 600 L 749.30517578125 600 L 749.30517578125 730 L 560 730 L 560 600 Z Z" stroke-miterlimit="10"/></g><g transform="translate(-470,-102) scale(1,1)"><path fill="none" stroke="#000000" d="M 560 625 L 749.30517578125 625" stroke-miterlimit="10"/></g><g transform="translate(-470,-102) scale(1,1)"><path fill="none" stroke="#000000" d="M 560 678 L 749.30517578125 678" stroke-miterlimit="10"/></g><g transform="translate(-470,-102) scale(1,1)"><g><path fill="none" stroke="none"/><text fill="#000000" stroke="none" font-family="Arial" font-size="13px" font-style="normal" font-weight="bold" text-decoration="none" x="630.442626953125" y="619.5">Request</text></g></g><g transform="translate(-470,-102) scale(1,1)"><g><path fill="none" stroke="none"/><text fill="#000000" stroke="none" font-family="Arial" font-size="13px" font-style="normal" font-weight="normal" text-decoration="none" x="565" y="642.5">-guestName: String</text></g></g><g transform="translate(-470,-102) scale(1,1)"><g><path fill="none" stroke="none"/><text fill="#000000" stroke="none" font-family="Arial" font-size="13px" font-style="normal" font-weight="normal" text-decoration="none" x="565" y="657.5">-requestTag: RequestTag</text></g></g><g transform="translate(-470,-102) scale(1,1)"><g><path fill="none" stroke="none"/><text fill="#000000" stroke="none" font-family="Arial" font-size="13px" font-style="normal" font-weight="normal" text-decoration="none" x="565" y="672.5">-roomId: int</text></g></g><g transform="translate(-470,-102) scale(1,1)"><g><path fill="none" stroke="none"/><text fill="#000000" stroke="none" font-family="Arial" font-size="13px" font-style="normal" font-weight="normal" text-decoration="none" x="565" y="695.5">+getGuestName(): String</text></g></g><g transform="translate(-470,-102) scale(1,1)"><g><path fill="none" stroke="none"/><text fill="#000000" stroke="none" font-family="Arial" font-size="13px" font-style="normal" font-weight="normal" text-decoration="none" x="565" y="710.5">+getRequestTag(): RequestTag</text></g></g><g transform="translate(-470,-102) scale(1,1)"><g><path fill="none" stroke="none"/><text fill="#000000" stroke="none" font-family="Arial" font-size="13px" font-style="normal" font-weight="normal" text-decoration="none" x="565" y="725.5">+getRoomId(): int</text></g></g><g transform="translate(-470,-102) scale(1,1)"><rect fill="#C0C0C0" stroke="none" x="543" y="831" width="215.603515625" height="240" opacity="0.2"/></g><g transform="translate(-470,-102) scale(1,1)"><rect fill="#ffffff" stroke="none" x="536" y="824" width="215.603515625" height="240"/></g><g transform="translate(-470,-102) scale(1,1)"><path fill="none" stroke="#000000" d="M 536 824 L 751.603515625 824 L 751.603515625 1064 L 536 1064 L 536 824 Z Z" stroke-miterlimit="10"/></g><g transform="translate(-470,-102) scale(1,1)"><path fill="none" stroke="#000000" d="M 536 862 L 751.603515625 862" stroke-miterlimit="10"/></g><g transform="translate(-470,-102) scale(1,1)"><g><path fill="none" stroke="none"/><text fill="#000000" stroke="none" font-family="Arial" font-size="13px" font-style="normal" font-weight="normal" text-decoration="none" x="600.437744140625" y="841.5">«enumeration»</text></g></g><g transform="translate(-470,-102) scale(1,1)"><g><path fill="none" stroke="none"/><text fill="#000000" stroke="none" font-family="Arial" font-size="13px" font-style="normal" font-weight="bold" text-decoration="none" x="609.11181640625" y="856.5">RequestTag</text></g></g><g transform="translate(-470,-102) scale(1,1)"><g><path fill="none" stroke="none"/><text fill="#000000" stroke="none" font-family="Arial" font-size="13px" font-style="normal" font-weight="normal" text-decoration="none" x="541" y="879.5">GUEST_REC_CHECKIN</text></g></g><g transform="translate(-470,-102) scale(1,1)"><g><path fill="none" stroke="none"/><text fill="#000000" stroke="none" font-family="Arial" font-size="13px" font-style="normal" font-weight="normal" text-decoration="none" x="541" y="894.5">GUEST_REC_CHECKOUT</text></g></g><g transform="translate(-470,-102) scale(1,1)"><g><path fill="none" stroke="none"/><text fill="#000000" stroke="none" font-family="Arial" font-size="13px" font-style="normal" font-weight="normal" text-decoration="none" x="541" y="909.5">GUEST_REC_CLEAN</text></g></g><g transform="translate(-470,-102) scale(1,1)"><g><path fill="none" stroke="none"/><text fill="#000000" stroke="none" font-family="Arial" font-size="13px" font-style="normal" font-weight="normal" text-decoration="none" x="541" y="924.5">REC_DIS_CHECKIN</text></g></g><g transform="translate(-470,-102) scale(1,1)"><g><path fill="none" stroke="none"/><text fill="#000000" stroke="none" font-family="Arial" font-size="13px" font-style="normal" font-weight="normal" text-decoration="none" x="541" y="939.5">REC_DIS_CHECKOUT</text></g></g><g transform="translate(-470,-102) scale(1,1)"><g><path fill="none" stroke="none"/><text fill="#000000" stroke="none" font-family="Arial" font-size="13px" font-style="normal" font-weight="normal" text-decoration="none" x="541" y="954.5">REC_DIS_CLEAN</text></g></g><g transform="translate(-470,-102) scale(1,1)"><g><path fill="none" stroke="none"/><text fill="#000000" stroke="none" font-family="Arial" font-size="13px" font-style="normal" font-weight="normal" text-decoration="none" x="541" y="969.5">DIS_CLE_CLEAN_ONLY</text></g></g><g transform="translate(-470,-102) scale(1,1)"><g><path fill="none" stroke="none"/><text fill="#000000" stroke="none" font-family="Arial" font-size="13px" font-style="normal" font-weight="normal" text-decoration="none" x="541" y="984.5">DIS_CLE_CLEAN_CHECKOUT</text></g></g><g transform="translate(-470,-102) scale(1,1)"><g><path fill="none" stroke="none"/><text fill="#000000" stroke="none" font-family="Arial" font-size="13px" font-style="normal" font-weight="normal" text-decoration="none" x="541" y="999.5">DIS_REC_CHECKIN_SUCCESS</text></g></g><g transform="translate(-470,-102) scale(1,1)"><g><path fill="none" stroke="none"/><text fill="#000000" stroke="none" font-family="Arial" font-size="13px" font-style="normal" font-weight="normal" text-decoration="none" x="541" y="1014.5">DIS_REC_CHECKIN_FAILED</text></g></g><g transform="translate(-470,-102) scale(1,1)"><g><path fill="none" stroke="none"/><text fill="#000000" stroke="none" font-family="Arial" font-size="13px" font-style="normal" font-weight="normal" text-decoration="none" x="541" y="1029.5">DIS_REC_CHECKOUT_SUCCESS</text></g></g><g transform="translate(-470,-102) scale(1,1)"><g><path fill="none" stroke="none"/><text fill="#000000" stroke="none" font-family="Arial" font-size="13px" font-style="normal" font-weight="normal" text-decoration="none" x="541" y="1044.5">CLE_DIS_CLEAN_ONLY</text></g></g><g transform="translate(-470,-102) scale(1,1)"><g><path fill="none" stroke="none"/><text fill="#000000" stroke="none" font-family="Arial" font-size="13px" font-style="normal" font-weight="normal" text-decoration="none" x="541" y="1059.5">CLE_DIS_CLEAN_CHECKOUT</text></g></g><g transform="translate(-470,-102) scale(1,1)"><rect fill="#C0C0C0" stroke="none" x="1295" y="855" width="103.12939453125" height="90" opacity="0.2"/></g><g transform="translate(-470,-102) scale(1,1)"><rect fill="#ffffff" stroke="none" x="1288" y="848" width="103.12939453125" height="90"/></g><g transform="translate(-470,-102) scale(1,1)"><path fill="none" stroke="#000000" d="M 1288 848 L 1391.12939453125 848 L 1391.12939453125 938 L 1288 938 L 1288 848 Z Z" stroke-miterlimit="10"/></g><g transform="translate(-470,-102) scale(1,1)"><path fill="none" stroke="#000000" d="M 1288 886 L 1391.12939453125 886" stroke-miterlimit="10"/></g><g transform="translate(-470,-102) scale(1,1)"><g><path fill="none" stroke="none"/><text fill="#000000" stroke="none" font-family="Arial" font-size="13px" font-style="normal" font-weight="normal" text-decoration="none" x="1296.20068359375" y="865.5">«enumeration»</text></g></g><g transform="translate(-470,-102) scale(1,1)"><g><path fill="none" stroke="none"/><text fill="#000000" stroke="none" font-family="Arial" font-size="13px" font-style="normal" font-weight="bold" text-decoration="none" x="1307.048828125" y="880.5">RoomState</text></g></g><g transform="translate(-470,-102) scale(1,1)"><g><path fill="none" stroke="none"/><text fill="#000000" stroke="none" font-family="Arial" font-size="13px" font-style="normal" font-weight="normal" text-decoration="none" x="1293" y="903.5">SPARE</text></g></g><g transform="translate(-470,-102) scale(1,1)"><g><path fill="none" stroke="none"/><text fill="#000000" stroke="none" font-family="Arial" font-size="13px" font-style="normal" font-weight="normal" text-decoration="none" x="1293" y="918.5">OCCUPIED</text></g></g><g transform="translate(-470,-102) scale(1,1)"><g><path fill="none" stroke="none"/><text fill="#000000" stroke="none" font-family="Arial" font-size="13px" font-style="normal" font-weight="normal" text-decoration="none" x="1293" y="933.5">CLEANING</text></g></g><g transform="translate(-470,-102) scale(1,1)"><rect fill="#C0C0C0" stroke="none" x="895" y="543" width="225.43603515625" height="85" opacity="0.2"/></g><g transform="translate(-470,-102) scale(1,1)"><rect fill="#ffffff" stroke="none" x="888" y="536" width="225.43603515625" height="85"/></g><g transform="translate(-470,-102) scale(1,1)"><path fill="none" stroke="#000000" d="M 888 536 L 1113.43603515625 536 L 1113.43603515625 621 L 888 621 L 888 536 Z Z" stroke-miterlimit="10"/></g><g transform="translate(-470,-102) scale(1,1)"><path fill="none" stroke="#000000" d="M 888 561 L 1113.43603515625 561" stroke-miterlimit="10"/></g><g transform="translate(-470,-102) scale(1,1)"><path fill="none" stroke="#000000" d="M 888 584 L 1113.43603515625 584" stroke-miterlimit="10"/></g><g transform="translate(-470,-102) scale(1,1)"><g><path fill="none" stroke="none"/><text fill="#000000" stroke="none" font-family="Arial" font-size="13px" font-style="normal" font-weight="bold" text-decoration="none" x="966.39306640625" y="555.5">RequestList</text></g></g><g transform="translate(-470,-102) scale(1,1)"><g><path fill="none" stroke="none"/><text fill="#000000" stroke="none" font-family="Arial" font-size="13px" font-style="normal" font-weight="normal" text-decoration="none" x="893" y="578.5">-requestList: ArrayList&lt;Request&gt;</text></g></g><g transform="translate(-470,-102) scale(1,1)"><g><path fill="none" stroke="none"/><text fill="#000000" stroke="none" font-family="Arial" font-size="13px" font-style="normal" font-weight="normal" text-decoration="none" x="893" y="601.5">+addRequest(request: Request): void</text></g></g><g transform="translate(-470,-102) scale(1,1)"><g><path fill="none" stroke="none"/><text fill="#000000" stroke="none" font-family="Arial" font-size="13px" font-style="normal" font-weight="normal" text-decoration="none" x="893" y="616.5">+getRequest(): Request</text></g></g><g transform="translate(-470,-102) scale(1,1)"><rect fill="#C0C0C0" stroke="none" x="1199" y="647" width="330.61669921875" height="145" opacity="0.2"/></g><g transform="translate(-470,-102) scale(1,1)"><rect fill="#ffffff" stroke="none" x="1192" y="640" width="330.61669921875" height="145"/></g><g transform="translate(-470,-102) scale(1,1)"><path fill="none" stroke="#000000" d="M 1192 640 L 1522.61669921875 640 L 1522.61669921875 785 L 1192 785 L 1192 640 Z Z" stroke-miterlimit="10"/></g><g transform="translate(-470,-102) scale(1,1)"><path fill="none" stroke="#000000" d="M 1192 665 L 1522.61669921875 665" stroke-miterlimit="10"/></g><g transform="translate(-470,-102) scale(1,1)"><path fill="none" stroke="#000000" d="M 1192 703 L 1522.61669921875 703" stroke-miterlimit="10"/></g><g transform="translate(-470,-102) scale(1,1)"><g><path fill="none" stroke="none"/><text fill="#000000" stroke="none" font-family="Arial" font-size="13px" font-style="normal" font-weight="bold" text-decoration="none" x="1324.4306640625" y="659.5">RoomTable</text></g></g><g transform="translate(-470,-102) scale(1,1)"><g><path fill="none" stroke="none"/><text fill="#000000" stroke="none" font-family="Arial" font-size="13px" font-style="normal" font-weight="normal" text-decoration="none" x="1197" y="682.5">-instance: RoomTable</text></g></g><g transform="translate(-470,-102) scale(1,1)"><g><path fill="none" stroke="none"/><text fill="#000000" stroke="none" font-family="Arial" font-size="13px" font-style="normal" font-weight="normal" text-decoration="none" x="1197" y="697.5">-roomStateTable: ArrayList&lt;RoomState&gt;</text></g></g><g transform="translate(-470,-102) scale(1,1)"><g><path fill="none" stroke="none"/><text fill="#000000" stroke="none" font-family="Arial" font-size="13px" font-style="normal" font-weight="normal" text-decoration="none" x="1197" y="720.5">+initial(roomNum: int): void</text></g></g><g transform="translate(-470,-102) scale(1,1)"><g><path fill="none" stroke="none"/><text fill="#000000" stroke="none" font-family="Arial" font-size="13px" font-style="normal" font-weight="normal" text-decoration="none" x="1197" y="735.5">+getInstance(): RoomTable</text></g></g><g transform="translate(-470,-102) scale(1,1)"><g><path fill="none" stroke="none"/><text fill="#000000" stroke="none" font-family="Arial" font-size="13px" font-style="normal" font-weight="normal" text-decoration="none" x="1197" y="750.5">+setRoomState(roomId: int, state: RoomState): void</text></g></g><g transform="translate(-470,-102) scale(1,1)"><g><path fill="none" stroke="none"/><text fill="#000000" stroke="none" font-family="Arial" font-size="13px" font-style="normal" font-weight="normal" text-decoration="none" x="1197" y="765.5">+getRoomState(roomId: int): RoomState</text></g></g><g transform="translate(-470,-102) scale(1,1)"><g><path fill="none" stroke="none"/><text fill="#000000" stroke="none" font-family="Arial" font-size="13px" font-style="normal" font-weight="normal" text-decoration="none" x="1197" y="780.5">+getSpareRoom(): int</text></g></g><g transform="translate(-470,-102) scale(1,1)"><rect fill="#C0C0C0" stroke="none" x="535" y="335" width="304" height="162" opacity="0.2"/></g><g transform="translate(-470,-102) scale(1,1)"><rect fill="#ffffff" stroke="none" x="528" y="328" width="304" height="162"/></g><g transform="translate(-470,-102) scale(1,1)"><path fill="none" stroke="#000000" d="M 528 328 L 832 328 L 832 490 L 528 490 L 528 328 Z Z" stroke-miterlimit="10"/></g><g transform="translate(-470,-102) scale(1,1)"><path fill="none" stroke="#000000" d="M 528 353 L 832 353" stroke-miterlimit="10"/></g><g transform="translate(-470,-102) scale(1,1)"><path fill="none" stroke="#000000" d="M 528 363 L 832 363" stroke-miterlimit="10"/></g><g transform="translate(-470,-102) scale(1,1)"><g><path fill="none" stroke="none"/><text fill="#000000" stroke="none" font-family="Arial" font-size="13px" font-style="normal" font-weight="bold" text-decoration="none" x="644.23095703125" y="347.5">Receptionist</text></g></g><g transform="translate(-470,-102) scale(1,1)"><g><path fill="none" stroke="none"/><text fill="#000000" stroke="none" font-family="Arial" font-size="13px" font-style="normal" font-weight="normal" text-decoration="none" x="533" y="380.5">+run(): void</text></g></g><g transform="translate(-470,-102) scale(1,1)"><g><path fill="none" stroke="none"/><text fill="#000000" stroke="none" font-family="Arial" font-size="13px" font-style="normal" font-weight="normal" text-decoration="none" x="533" y="395.5">-apply4checkIn(request: Request): void</text></g></g><g transform="translate(-470,-102) scale(1,1)"><g><path fill="none" stroke="none"/><text fill="#000000" stroke="none" font-family="Arial" font-size="13px" font-style="normal" font-weight="normal" text-decoration="none" x="533" y="410.5">-apply4checkOut(request: Request): void</text></g></g><g transform="translate(-470,-102) scale(1,1)"><g><path fill="none" stroke="none"/><text fill="#000000" stroke="none" font-family="Arial" font-size="13px" font-style="normal" font-weight="normal" text-decoration="none" x="533" y="425.5">-apply4clean(request: Request): void</text></g></g><g transform="translate(-470,-102) scale(1,1)"><g><path fill="none" stroke="none"/><text fill="#000000" stroke="none" font-family="Arial" font-size="13px" font-style="normal" font-weight="normal" text-decoration="none" x="533" y="440.5">-replyCheckIn4success(request: Request): void</text></g></g><g transform="translate(-470,-102) scale(1,1)"><g><path fill="none" stroke="none"/><text fill="#000000" stroke="none" font-family="Arial" font-size="13px" font-style="normal" font-weight="normal" text-decoration="none" x="533" y="455.5">-replyCheckIn4failed(request: Request): void</text></g></g><g transform="translate(-470,-102) scale(1,1)"><g><path fill="none" stroke="none"/><text fill="#000000" stroke="none" font-family="Arial" font-size="13px" font-style="normal" font-weight="normal" text-decoration="none" x="533" y="470.5">-replyCheckOut(request: Request): void</text></g></g><g transform="translate(-470,-102) scale(1,1)"><rect fill="#C0C0C0" stroke="none" x="1119" y="343" width="312.92578125" height="132" opacity="0.2"/></g><g transform="translate(-470,-102) scale(1,1)"><rect fill="#ffffff" stroke="none" x="1112" y="336" width="312.92578125" height="132"/></g><g transform="translate(-470,-102) scale(1,1)"><path fill="none" stroke="#000000" d="M 1112 336 L 1424.92578125 336 L 1424.92578125 468 L 1112 468 L 1112 336 Z Z" stroke-miterlimit="10"/></g><g transform="translate(-470,-102) scale(1,1)"><path fill="none" stroke="#000000" d="M 1112 361 L 1424.92578125 361" stroke-miterlimit="10"/></g><g transform="translate(-470,-102) scale(1,1)"><path fill="none" stroke="#000000" d="M 1112 371 L 1424.92578125 371" stroke-miterlimit="10"/></g><g transform="translate(-470,-102) scale(1,1)"><g><path fill="none" stroke="none"/><text fill="#000000" stroke="none" font-family="Arial" font-size="13px" font-style="normal" font-weight="bold" text-decoration="none" x="1237.394287109375" y="355.5">Dispatcher</text></g></g><g transform="translate(-470,-102) scale(1,1)"><g><path fill="none" stroke="none"/><text fill="#000000" stroke="none" font-family="Arial" font-size="13px" font-style="normal" font-weight="normal" text-decoration="none" x="1117" y="388.5">+run(): void</text></g></g><g transform="translate(-470,-102) scale(1,1)"><g><path fill="none" stroke="none"/><text fill="#000000" stroke="none" font-family="Arial" font-size="13px" font-style="normal" font-weight="normal" text-decoration="none" x="1117" y="403.5">-checkIn(request: Request): void</text></g></g><g transform="translate(-470,-102) scale(1,1)"><g><path fill="none" stroke="none"/><text fill="#000000" stroke="none" font-family="Arial" font-size="13px" font-style="normal" font-weight="normal" text-decoration="none" x="1117" y="418.5">-arrangeClean4CheckOut(request: Request): void</text></g></g><g transform="translate(-470,-102) scale(1,1)"><g><path fill="none" stroke="none"/><text fill="#000000" stroke="none" font-family="Arial" font-size="13px" font-style="normal" font-weight="normal" text-decoration="none" x="1117" y="433.5">-arrangeCleanOnly(request: Request): void</text></g></g><g transform="translate(-470,-102) scale(1,1)"><g><path fill="none" stroke="none"/><text fill="#000000" stroke="none" font-family="Arial" font-size="13px" font-style="normal" font-weight="normal" text-decoration="none" x="1117" y="448.5">-finishCleanOnly(request: Request): void</text></g></g><g transform="translate(-470,-102) scale(1,1)"><g><path fill="none" stroke="none"/><text fill="#000000" stroke="none" font-family="Arial" font-size="13px" font-style="normal" font-weight="normal" text-decoration="none" x="1117" y="463.5">-checkOut(request: Request): void</text></g></g><g transform="translate(-470,-102) scale(1,1)"><rect fill="#C0C0C0" stroke="none" x="855" y="359" width="231.19970703125" height="87" opacity="0.2"/></g><g transform="translate(-470,-102) scale(1,1)"><rect fill="#ffffff" stroke="none" x="848" y="352" width="231.19970703125" height="87"/></g><g transform="translate(-470,-102) scale(1,1)"><path fill="none" stroke="#000000" d="M 848 352 L 1079.19970703125 352 L 1079.19970703125 439 L 848 439 L 848 352 Z Z" stroke-miterlimit="10"/></g><g transform="translate(-470,-102) scale(1,1)"><path fill="none" stroke="#000000" d="M 848 377 L 1079.19970703125 377" stroke-miterlimit="10"/></g><g transform="translate(-470,-102) scale(1,1)"><path fill="none" stroke="#000000" d="M 848 387 L 1079.19970703125 387" stroke-miterlimit="10"/></g><g transform="translate(-470,-102) scale(1,1)"><g><path fill="none" stroke="none"/><text fill="#000000" stroke="none" font-family="Arial" font-size="13px" font-style="normal" font-weight="bold" text-decoration="none" x="940.837158203125" y="371.5">Cleaner</text></g></g><g transform="translate(-470,-102) scale(1,1)"><g><path fill="none" stroke="none"/><text fill="#000000" stroke="none" font-family="Arial" font-size="13px" font-style="normal" font-weight="normal" text-decoration="none" x="853" y="404.5">+run(): void</text></g></g><g transform="translate(-470,-102) scale(1,1)"><g><path fill="none" stroke="none"/><text fill="#000000" stroke="none" font-family="Arial" font-size="13px" font-style="normal" font-weight="normal" text-decoration="none" x="853" y="419.5">-cleanRoom(request: Request): void</text></g></g><g transform="translate(-470,-102) scale(1,1)"><rect fill="#C0C0C0" stroke="none" x="847" y="703" width="340.03662109375" height="430" opacity="0.2"/></g><g transform="translate(-470,-102) scale(1,1)"><rect fill="#ffffff" stroke="none" x="840" y="696" width="340.03662109375" height="430"/></g><g transform="translate(-470,-102) scale(1,1)"><path fill="none" stroke="#000000" d="M 840 696 L 1180.03662109375 696 L 1180.03662109375 1126 L 840 1126 L 840 696 Z Z" stroke-miterlimit="10"/></g><g transform="translate(-470,-102) scale(1,1)"><path fill="none" stroke="#000000" d="M 840 721 L 1180.03662109375 721" stroke-miterlimit="10"/></g><g transform="translate(-470,-102) scale(1,1)"><path fill="none" stroke="#000000" d="M 840 834 L 1180.03662109375 834" stroke-miterlimit="10"/></g><g transform="translate(-470,-102) scale(1,1)"><g><path fill="none" stroke="none"/><text fill="#000000" stroke="none" font-family="Arial" font-size="13px" font-style="normal" font-weight="bold" text-decoration="none" x="981.841064453125" y="715.5">Controller</text></g></g><g transform="translate(-470,-102) scale(1,1)"><g><path fill="none" stroke="none"/><text fill="#000000" stroke="none" font-family="Arial" font-size="13px" font-style="normal" font-weight="normal" text-decoration="none" x="845" y="738.5">-instance: Controller</text></g></g><g transform="translate(-470,-102) scale(1,1)"><g><path fill="none" stroke="none"/><text fill="#000000" stroke="none" font-family="Arial" font-size="13px" font-style="normal" font-weight="normal" text-decoration="none" x="845" y="753.5">-recRequestList: RequestList</text></g></g><g transform="translate(-470,-102) scale(1,1)"><g><path fill="none" stroke="none"/><text fill="#000000" stroke="none" font-family="Arial" font-size="13px" font-style="normal" font-weight="normal" text-decoration="none" x="845" y="768.5">-disRequestList: RequestList</text></g></g><g transform="translate(-470,-102) scale(1,1)"><g><path fill="none" stroke="none"/><text fill="#000000" stroke="none" font-family="Arial" font-size="13px" font-style="normal" font-weight="normal" text-decoration="none" x="845" y="783.5">-cleRequestList: RequestList</text></g></g><g transform="translate(-470,-102) scale(1,1)"><g><path fill="none" stroke="none"/><text fill="#000000" stroke="none" font-family="Arial" font-size="13px" font-style="normal" font-weight="normal" text-decoration="none" x="845" y="798.5">-commandNum: int</text></g></g><g transform="translate(-470,-102) scale(1,1)"><g><path fill="none" stroke="none"/><text fill="#000000" stroke="none" font-family="Arial" font-size="13px" font-style="normal" font-weight="normal" text-decoration="none" x="845" y="813.5">-endTag: boolean</text></g></g><g transform="translate(-470,-102) scale(1,1)"><g><path fill="none" stroke="none"/><text fill="#000000" stroke="none" font-family="Arial" font-size="13px" font-style="normal" font-weight="normal" text-decoration="none" x="845" y="828.5">-isEnd: boolean</text></g></g><g transform="translate(-470,-102) scale(1,1)"><g><path fill="none" stroke="none"/><text fill="#000000" stroke="none" font-family="Arial" font-size="13px" font-style="normal" font-weight="normal" text-decoration="none" x="845" y="851.5">+initial(): void</text></g></g><g transform="translate(-470,-102) scale(1,1)"><g><path fill="none" stroke="none"/><text fill="#000000" stroke="none" font-family="Arial" font-size="13px" font-style="normal" font-weight="normal" text-decoration="none" x="845" y="866.5">+getInstance(): Controller</text></g></g><g transform="translate(-470,-102) scale(1,1)"><g><path fill="none" stroke="none"/><text fill="#000000" stroke="none" font-family="Arial" font-size="13px" font-style="normal" font-weight="normal" text-decoration="none" x="845" y="881.5">+incCommand(): void</text></g></g><g transform="translate(-470,-102) scale(1,1)"><g><path fill="none" stroke="none"/><text fill="#000000" stroke="none" font-family="Arial" font-size="13px" font-style="normal" font-weight="normal" text-decoration="none" x="845" y="896.5">+finishCommand(): void</text></g></g><g transform="translate(-470,-102) scale(1,1)"><g><path fill="none" stroke="none"/><text fill="#000000" stroke="none" font-family="Arial" font-size="13px" font-style="normal" font-weight="normal" text-decoration="none" x="845" y="911.5">+setEndTag(): void</text></g></g><g transform="translate(-470,-102) scale(1,1)"><g><path fill="none" stroke="none"/><text fill="#000000" stroke="none" font-family="Arial" font-size="13px" font-style="normal" font-weight="normal" text-decoration="none" x="845" y="926.5">-notifyAllWorkers(): void</text></g></g><g transform="translate(-470,-102) scale(1,1)"><g><path fill="none" stroke="none"/><text fill="#000000" stroke="none" font-family="Arial" font-size="13px" font-style="normal" font-weight="normal" text-decoration="none" x="845" y="941.5">+isEnd(): boolean</text></g></g><g transform="translate(-470,-102) scale(1,1)"><g><path fill="none" stroke="none"/><text fill="#000000" stroke="none" font-family="Arial" font-size="13px" font-style="normal" font-weight="normal" text-decoration="none" x="845" y="956.5">+ask2checkIn(guestName: String): void</text></g></g><g transform="translate(-470,-102) scale(1,1)"><g><path fill="none" stroke="none"/><text fill="#000000" stroke="none" font-family="Arial" font-size="13px" font-style="normal" font-weight="normal" text-decoration="none" x="845" y="971.5">+ask2checkOut(guestName: String, roomId: int): void</text></g></g><g transform="translate(-470,-102) scale(1,1)"><g><path fill="none" stroke="none"/><text fill="#000000" stroke="none" font-family="Arial" font-size="13px" font-style="normal" font-weight="normal" text-decoration="none" x="845" y="986.5">+ask2clean(guestName: String, roomId: int): void</text></g></g><g transform="translate(-470,-102) scale(1,1)"><g><path fill="none" stroke="none"/><text fill="#000000" stroke="none" font-family="Arial" font-size="13px" font-style="normal" font-weight="normal" text-decoration="none" x="845" y="1001.5">+arrangeCheckIn(request: Request): void</text></g></g><g transform="translate(-470,-102) scale(1,1)"><g><path fill="none" stroke="none"/><text fill="#000000" stroke="none" font-family="Arial" font-size="13px" font-style="normal" font-weight="normal" text-decoration="none" x="845" y="1016.5">+arrangeCheckOut(request: Request): void</text></g></g><g transform="translate(-470,-102) scale(1,1)"><g><path fill="none" stroke="none"/><text fill="#000000" stroke="none" font-family="Arial" font-size="13px" font-style="normal" font-weight="normal" text-decoration="none" x="845" y="1031.5">+arrangeClean(request: Request): void</text></g></g><g transform="translate(-470,-102) scale(1,1)"><g><path fill="none" stroke="none"/><text fill="#000000" stroke="none" font-family="Arial" font-size="13px" font-style="normal" font-weight="normal" text-decoration="none" x="845" y="1046.5">+clean4CheckOut(request: Request): void</text></g></g><g transform="translate(-470,-102) scale(1,1)"><g><path fill="none" stroke="none"/><text fill="#000000" stroke="none" font-family="Arial" font-size="13px" font-style="normal" font-weight="normal" text-decoration="none" x="845" y="1061.5">+cleanOnly(request: Request): void</text></g></g><g transform="translate(-470,-102) scale(1,1)"><g><path fill="none" stroke="none"/><text fill="#000000" stroke="none" font-family="Arial" font-size="13px" font-style="normal" font-weight="normal" text-decoration="none" x="845" y="1076.5">+checkInSuccess(request: Request, roomId: int): void</text></g></g><g transform="translate(-470,-102) scale(1,1)"><g><path fill="none" stroke="none"/><text fill="#000000" stroke="none" font-family="Arial" font-size="13px" font-style="normal" font-weight="normal" text-decoration="none" x="845" y="1091.5">+checkInFailed(request: Request): void</text></g></g><g transform="translate(-470,-102) scale(1,1)"><g><path fill="none" stroke="none"/><text fill="#000000" stroke="none" font-family="Arial" font-size="13px" font-style="normal" font-weight="normal" text-decoration="none" x="845" y="1106.5">+finishCheckOut(request: Request): void</text></g></g><g transform="translate(-470,-102) scale(1,1)"><g><path fill="none" stroke="none"/><text fill="#000000" stroke="none" font-family="Arial" font-size="13px" font-style="normal" font-weight="normal" text-decoration="none" x="845" y="1121.5">+cleanFinish(request: Request): void</text></g></g><g transform="translate(-470,-102) scale(1,1)"><path fill="none" stroke="#000000" d="M 720 328 L 720 307 L 888 307 L 888 257" stroke-miterlimit="10"/></g><g transform="translate(-470,-102) scale(1,1)"><path fill="#FFFFFF" stroke="none" d="M 896.419035512032 277.3253497152483 L 888 257 L 879.580964487968 277.3253497152483"/></g><g transform="translate(-470,-102) scale(1,1)"><path fill="none" stroke="#000000" d="M 896.419035512032 277.3253497152483 L 888 257 L 879.580964487968 277.3253497152483 L 896.419035512032 277.3253497152483" stroke-miterlimit="10"/></g><g transform="translate(-470,-102) scale(1,1)"><path fill="none" stroke="#000000" d="M 1192 336 L 1192 304 L 1032 304 L 1032 257" stroke-miterlimit="10"/></g><g transform="translate(-470,-102) scale(1,1)"><path fill="#FFFFFF" stroke="none" d="M 1040.419035512032 277.3253497152483 L 1032 257 L 1023.580964487968 277.3253497152483"/></g><g transform="translate(-470,-102) scale(1,1)"><path fill="none" stroke="#000000" d="M 1040.419035512032 277.3253497152483 L 1032 257 L 1023.580964487968 277.3253497152483 L 1040.419035512032 277.3253497152483" stroke-miterlimit="10"/></g><g transform="translate(-470,-102) scale(1,1)"><path fill="none" stroke="#000000" d="M 952 352 L 952 257" stroke-miterlimit="10"/></g><g transform="translate(-470,-102) scale(1,1)"><path fill="#FFFFFF" stroke="none" d="M 960.419035512032 277.3253497152483 L 952 257 L 943.580964487968 277.3253497152483"/></g><g transform="translate(-470,-102) scale(1,1)"><path fill="none" stroke="#000000" d="M 960.419035512032 277.3253497152483 L 952 257 L 943.580964487968 277.3253497152483 L 960.419035512032 277.3253497152483" stroke-miterlimit="10"/></g><g transform="translate(-470,-102) scale(1,1)"><path fill="none" stroke="#000000" d="M 640 730 L 640 824" stroke-miterlimit="10"/></g><g transform="translate(-470,-102) scale(1,1)"><path fill="none" stroke="#000000" d="M 635.790482243984 813.8373251423759 L 640 824 L 644.209517756016 813.8373251423759" stroke-miterlimit="10"/></g><g transform="translate(-470,-102) scale(1,1)"><path fill="none" stroke="#000000" d="M 912 621 L 912 658 L 749 658" stroke-miterlimit="10"/></g><g transform="translate(-470,-102) scale(1,1)"><path fill="none" stroke="#000000" d="M 1000 696 L 1000 621" stroke-miterlimit="10"/></g><g transform="translate(-470,-102) scale(1,1)"><path fill="none" stroke="#000000" d="M 1336 785 L 1336 848" stroke-miterlimit="10"/></g><g transform="translate(-470,-102) scale(1,1)"><path fill="none" stroke="#000000" d="M 1331.7904822439841 837.8373251423759 L 1336 848 L 1340.2095177560159 837.8373251423759" stroke-miterlimit="10"/></g><g transform="translate(-470,-102) scale(1,1)"><path fill="none" stroke="#000000" d="M 1336 640 L 1336 468" stroke-miterlimit="10"/></g><g transform="translate(-470,-102) scale(1,1)"><path fill="none" stroke="#000000" d="M 888 576 L 480 576 L 480 177 L 856 177" stroke-miterlimit="10"/></g><g transform="translate(-470,-102) scale(1,1)"><path fill="none" stroke="#000000" d="M 1464 640 L 1464 619 L 1536 619 L 1536 680 L 1523 680" stroke-miterlimit="10"/></g><g transform="translate(-470,-102) scale(1,1)"><path fill="none" stroke="#000000" d="M 1533.162674857624 675.790482243984 L 1523 680 L 1533.162674857624 684.209517756016" stroke-miterlimit="10"/></g><g transform="translate(-470,-102) scale(1,1)"><path fill="none" stroke="#000000" d="M 880 696 L 880 676 L 808 676 L 808 744 L 840 744" stroke-miterlimit="10"/></g><g transform="translate(-470,-102) scale(1,1)"><path fill="none" stroke="#000000" d="M 829.8373251423759 748.209517756016 L 840 744 L 829.8373251423758 739.790482243984" stroke-miterlimit="10"/></g><g transform="translate(-470,-102) scale(1,1)"><rect fill="#C0C0C0" stroke="none" x="1247" y="975" width="171.23974609375" height="57" opacity="0.2"/></g><g transform="translate(-470,-102) scale(1,1)"><rect fill="#ffffff" stroke="none" x="1240" y="968" width="171.23974609375" height="57"/></g><g transform="translate(-470,-102) scale(1,1)"><path fill="none" stroke="#000000" d="M 1240 968 L 1411.23974609375 968 L 1411.23974609375 1025 L 1240 1025 L 1240 968 Z Z" stroke-miterlimit="10"/></g><g transform="translate(-470,-102) scale(1,1)"><path fill="none" stroke="#000000" d="M 1240 993 L 1411.23974609375 993" stroke-miterlimit="10"/></g><g transform="translate(-470,-102) scale(1,1)"><path fill="none" stroke="#000000" d="M 1240 1003 L 1411.23974609375 1003" stroke-miterlimit="10"/></g><g transform="translate(-470,-102) scale(1,1)"><g><path fill="none" stroke="none"/><text fill="#000000" stroke="none" font-family="Arial" font-size="13px" font-style="normal" font-weight="bold" text-decoration="none" x="1311.53125" y="987.5">Main</text></g></g><g transform="translate(-470,-102) scale(1,1)"><g><path fill="none" stroke="none"/><text fill="#000000" stroke="none" font-family="Arial" font-size="13px" font-style="normal" font-weight="normal" text-decoration="none" x="1245" y="1020.5">+main(args: String[]): void</text><path fill="none" stroke="#000000" d="M 1245 1020.5 L 1394.1953125 1020.5" stroke-miterlimit="10"/></g></g></g></svg>